<mxfile host="Electron" modified="2024-07-11T18:01:16.536Z" agent="Mozilla/5.0 (Windows NT 10.0; Win64; x64) AppleWebKit/537.36 (KHTML, like Gecko) draw.io/24.6.4 Chrome/124.0.6367.207 Electron/30.0.6 Safari/537.36" etag="mRT6MyVP1zyjuG2CqkvT" version="24.6.4" type="device">
  <diagram name="Page-1" id="ZC-bs220Rv02L9PDfVzc">
    <mxGraphModel dx="780" dy="504" grid="1" gridSize="10" guides="1" tooltips="1" connect="1" arrows="1" fold="1" page="1" pageScale="1" pageWidth="850" pageHeight="1100" math="0" shadow="0">
      <root>
        <mxCell id="0" />
        <mxCell id="1" parent="0" />
        <mxCell id="SyqkqrJS-6ElztrC_aUF-20" value="" style="edgeStyle=orthogonalEdgeStyle;rounded=0;orthogonalLoop=1;jettySize=auto;html=1;entryX=0.5;entryY=0;entryDx=0;entryDy=0;entryPerimeter=0;" edge="1" parent="1" source="SyqkqrJS-6ElztrC_aUF-1" target="SyqkqrJS-6ElztrC_aUF-2">
          <mxGeometry relative="1" as="geometry">
            <mxPoint x="190" y="230" as="targetPoint" />
          </mxGeometry>
        </mxCell>
        <mxCell id="SyqkqrJS-6ElztrC_aUF-1" value="" style="aspect=fixed;sketch=0;html=1;dashed=0;whitespace=wrap;verticalLabelPosition=bottom;verticalAlign=top;fillColor=#2875E2;strokeColor=#ffffff;points=[[0.005,0.63,0],[0.1,0.2,0],[0.9,0.2,0],[0.5,0,0],[0.995,0.63,0],[0.72,0.99,0],[0.5,1,0],[0.28,0.99,0]];shape=mxgraph.kubernetes.icon2;kubernetesLabel=1;prIcon=api" vertex="1" parent="1">
          <mxGeometry x="172.08" y="142.4" width="57.92" height="55.6" as="geometry" />
        </mxCell>
        <mxCell id="SyqkqrJS-6ElztrC_aUF-14" value="" style="edgeStyle=orthogonalEdgeStyle;rounded=0;orthogonalLoop=1;jettySize=auto;html=1;" edge="1" parent="1" source="SyqkqrJS-6ElztrC_aUF-2" target="SyqkqrJS-6ElztrC_aUF-4">
          <mxGeometry relative="1" as="geometry" />
        </mxCell>
        <mxCell id="SyqkqrJS-6ElztrC_aUF-2" value="" style="outlineConnect=0;dashed=0;verticalLabelPosition=bottom;verticalAlign=top;align=center;html=1;shape=mxgraph.aws3.android;fillColor=#FFD44F;gradientColor=none;" vertex="1" parent="1">
          <mxGeometry x="170" y="230" width="62.92" height="70" as="geometry" />
        </mxCell>
        <mxCell id="SyqkqrJS-6ElztrC_aUF-15" value="" style="edgeStyle=orthogonalEdgeStyle;rounded=0;orthogonalLoop=1;jettySize=auto;html=1;" edge="1" parent="1" source="SyqkqrJS-6ElztrC_aUF-4" target="SyqkqrJS-6ElztrC_aUF-5">
          <mxGeometry relative="1" as="geometry" />
        </mxCell>
        <mxCell id="SyqkqrJS-6ElztrC_aUF-4" value="" style="sketch=0;outlineConnect=0;fontColor=#232F3E;gradientColor=none;fillColor=#7AA116;strokeColor=none;dashed=0;verticalLabelPosition=bottom;verticalAlign=top;align=center;html=1;fontSize=12;fontStyle=0;aspect=fixed;pointerEvents=1;shape=mxgraph.aws4.notebook;" vertex="1" parent="1">
          <mxGeometry x="360" y="231.53" width="58" height="66.53" as="geometry" />
        </mxCell>
        <mxCell id="SyqkqrJS-6ElztrC_aUF-19" value="" style="edgeStyle=orthogonalEdgeStyle;rounded=0;orthogonalLoop=1;jettySize=auto;html=1;entryX=0.418;entryY=1.076;entryDx=0;entryDy=0;entryPerimeter=0;" edge="1" parent="1" source="SyqkqrJS-6ElztrC_aUF-5" target="SyqkqrJS-6ElztrC_aUF-6">
          <mxGeometry relative="1" as="geometry" />
        </mxCell>
        <mxCell id="SyqkqrJS-6ElztrC_aUF-5" value="" style="sketch=0;outlineConnect=0;fontColor=#232F3E;gradientColor=none;fillColor=#C925D1;strokeColor=none;dashed=0;verticalLabelPosition=bottom;verticalAlign=top;align=center;html=1;fontSize=12;fontStyle=0;aspect=fixed;pointerEvents=1;shape=mxgraph.aws4.rds_sql_server_instance;" vertex="1" parent="1">
          <mxGeometry x="530" y="233.06" width="63.47" height="63.47" as="geometry" />
        </mxCell>
        <mxCell id="SyqkqrJS-6ElztrC_aUF-6" value="" style="image;aspect=fixed;html=1;points=[];align=center;fontSize=12;image=img/lib/azure2/analytics/Analysis_Services.svg;" vertex="1" parent="1">
          <mxGeometry x="535" y="150" width="63" height="48" as="geometry" />
        </mxCell>
        <mxCell id="SyqkqrJS-6ElztrC_aUF-7" value="&lt;b&gt;Kaggle API&lt;/b&gt;" style="text;html=1;align=center;verticalAlign=middle;whiteSpace=wrap;rounded=0;" vertex="1" parent="1">
          <mxGeometry x="230" y="159" width="60" height="30" as="geometry" />
        </mxCell>
        <mxCell id="SyqkqrJS-6ElztrC_aUF-8" value="&lt;b&gt;Python&lt;/b&gt;" style="text;html=1;align=center;verticalAlign=middle;whiteSpace=wrap;rounded=0;" vertex="1" parent="1">
          <mxGeometry x="170" y="296.53" width="60" height="30" as="geometry" />
        </mxCell>
        <mxCell id="SyqkqrJS-6ElztrC_aUF-9" value="&lt;b&gt;Python-Pandas&lt;/b&gt;" style="text;html=1;align=center;verticalAlign=middle;whiteSpace=wrap;rounded=0;" vertex="1" parent="1">
          <mxGeometry x="339" y="298.05999999999995" width="100" height="30" as="geometry" />
        </mxCell>
        <mxCell id="SyqkqrJS-6ElztrC_aUF-11" value="&lt;b&gt;SQL&lt;/b&gt;" style="text;html=1;align=center;verticalAlign=middle;whiteSpace=wrap;rounded=0;" vertex="1" parent="1">
          <mxGeometry x="531.73" y="300" width="58.27" height="30" as="geometry" />
        </mxCell>
        <mxCell id="SyqkqrJS-6ElztrC_aUF-17" value="&lt;font style=&quot;font-size: 8px;&quot;&gt;&lt;b&gt;Data Cleaning and Processing&lt;/b&gt;&lt;/font&gt;" style="text;html=1;align=center;verticalAlign=middle;whiteSpace=wrap;rounded=0;" vertex="1" parent="1">
          <mxGeometry x="250" y="233" width="70" height="30" as="geometry" />
        </mxCell>
        <mxCell id="SyqkqrJS-6ElztrC_aUF-18" value="&lt;font style=&quot;font-size: 8px;&quot;&gt;&lt;b&gt;Load Data&lt;/b&gt;&lt;/font&gt;" style="text;html=1;align=center;verticalAlign=middle;whiteSpace=wrap;rounded=0;" vertex="1" parent="1">
          <mxGeometry x="440" y="231.53" width="60" height="30" as="geometry" />
        </mxCell>
        <mxCell id="SyqkqrJS-6ElztrC_aUF-21" value="&lt;font style=&quot;font-size: 8px;&quot;&gt;&lt;b&gt;Download Dataset&lt;/b&gt;&lt;/font&gt;" style="text;html=1;align=center;verticalAlign=middle;whiteSpace=wrap;rounded=0;" vertex="1" parent="1">
          <mxGeometry x="120" y="203.06" width="70" height="30" as="geometry" />
        </mxCell>
        <mxCell id="SyqkqrJS-6ElztrC_aUF-22" value="&lt;b&gt;&lt;font style=&quot;font-size: 8px;&quot;&gt;Data Analysis using SQL&lt;/font&gt;&lt;/b&gt;" style="text;html=1;align=center;verticalAlign=middle;whiteSpace=wrap;rounded=0;" vertex="1" parent="1">
          <mxGeometry x="570" y="200" width="100" height="33" as="geometry" />
        </mxCell>
      </root>
    </mxGraphModel>
  </diagram>
</mxfile>
